<?xml version="1.0" encoding="UTF-8" standalone="no"?>
<!DOCTYPE svg PUBLIC "-//W3C//DTD SVG 1.1//EN" "http://www.w3.org/Graphics/SVG/1.1/DTD/svg11.dtd">
<svg version="1.1" xmlns="http://www.w3.org/2000/svg" xmlns:xlink="http://www.w3.org/1999/xlink" preserveAspectRatio="xMidYMid meet" viewBox="0 0 900 900" width="900" height="900"><defs><path d="M0 850L0.17 841.76L0.66 833.61L1.48 825.54L2.62 817.58L4.07 809.71L5.82 801.96L7.86 794.33L10.2 786.81L12.83 779.43L15.73 772.18L18.9 765.08L22.34 758.12L26.03 751.32L29.98 744.68L34.18 738.21L38.61 731.91L43.28 725.8L48.17 719.87L53.28 714.14L58.61 708.61L64.14 703.28L69.87 698.17L75.8 693.28L81.91 688.61L88.21 684.18L94.68 679.98L101.32 676.03L108.12 672.34L115.08 668.9L122.18 665.73L129.43 662.83L136.81 660.2L144.33 657.86L151.96 655.82L159.71 654.07L167.58 652.62L175.54 651.48L183.61 650.66L191.76 650.17L200 650L300 650L500 850L0 850ZM889.8 713.19L887.17 720.57L887.17 720.57L884.27 727.82L884.27 727.82L881.1 734.92L881.1 734.92L877.66 741.88L877.66 741.88L873.97 748.68L873.97 748.68L870.02 755.32L870.02 755.32L865.82 761.79L861.39 768.09L856.72 774.2L851.83 780.13L846.72 785.86L841.39 791.39L835.86 796.72L830.13 801.83L824.2 806.72L818.09 811.39L811.79 815.82L805.32 820.02L798.68 823.97L791.88 827.66L784.92 831.1L777.82 834.27L770.57 837.17L763.19 839.8L755.67 842.14L748.04 844.18L740.29 845.93L732.42 847.38L724.46 848.52L716.39 849.34L708.24 849.83L700 850L500 850L500 850L700 850L708.24 849.83L716.39 849.34L724.46 848.52L732.42 847.38L740.29 845.93L748.04 844.18L755.67 842.13L763.19 839.8L770.57 837.17L777.82 834.27L784.92 831.1L791.88 827.66L798.68 823.97L805.32 820.02L811.79 815.82L818.09 811.39L824.2 806.72L830.13 801.83L835.86 796.72L841.39 791.39L846.72 785.86L851.83 780.13L856.72 774.2L861.39 768.08L865.82 761.79L870.02 755.32L873.97 748.68L877.66 741.88L881.1 734.92L884.27 727.82L887.17 720.57L889.8 713.19L892.14 705.67L892.14 705.67L889.8 713.19L889.8 713.19ZM895.93 690.28L895.93 690.29L895.26 693.28L895.93 690.28ZM898.52 674.46L898.52 674.46L898.29 676.03L898.52 674.46Z" id="aGuqkHbhB"></path><path d="M300 250L700 250L700 50L100 50L300 250Z" id="ar03Hzl8s"></path><path d="M500 450L500 850L100 450L100 50L500 450Z" id="a5ATGA1HCo"></path><path d="M900 250L900 650L700 650L700 50L900 250Z" id="a5J0NAdYM9"></path><path d="M898.52 674.45L897.38 682.42L895.93 690.28L894.18 698.03L892.14 705.67L889.8 713.18L887.17 720.57L884.27 727.81L881.1 734.92L877.66 741.87L873.97 748.67L870.02 755.31L865.82 761.78L861.39 768.08L856.72 774.2L851.83 780.12L846.72 785.86L841.39 791.39L835.86 796.71L830.13 801.83L824.2 806.72L818.09 811.39L811.79 815.82L805.32 820.01L798.68 823.96L791.88 827.66L784.92 831.1L777.82 834.27L770.57 837.17L763.19 839.79L755.67 842.13L748.04 844.18L740.29 845.93L732.42 847.38L724.46 848.51L716.39 849.33L708.24 849.83L700 850L500 850L500 650L900 650L899.83 658.23L899.34 666.39L899.34 666.39L898.52 674.45Z" id="bAKd4lhph"></path><path d="M899.33 666.4L898.51 674.46L897.38 682.43L895.93 690.29L894.18 698.04L892.13 705.68L889.79 713.19L887.17 720.57L884.27 727.82L881.1 734.92L877.66 741.88L873.96 748.68L870.01 755.32L865.82 761.79L861.39 768.09L856.72 774.2L851.83 780.13L846.72 785.86L841.39 791.4L835.86 796.72L830.12 801.83L824.2 806.73L818.08 811.39L811.79 815.83L805.32 820.02L798.68 823.97L791.88 827.66L784.92 831.1L777.81 834.27L770.57 837.18L763.18 839.8L755.67 842.14L748.04 844.19L740.28 845.94L732.42 847.38L724.45 848.52L716.39 849.34L708.24 849.84L700.01 850L700 850L700 650L900 650L899.83 658.24L899.33 666.4Z" id="bHS8nZryc"></path></defs><g><g><g><use xlink:href="#aGuqkHbhB" opacity="1" fill="#212529" fill-opacity="1"></use></g><g><use xlink:href="#ar03Hzl8s" opacity="1" fill="#495057" fill-opacity="1"></use></g><g><use xlink:href="#a5ATGA1HCo" opacity="1" fill="#343a40" fill-opacity="1"></use></g><g><use xlink:href="#a5J0NAdYM9" opacity="1" fill="#6c757d" fill-opacity="1"></use></g><g><use xlink:href="#bAKd4lhph" opacity="1" fill="#adb5bd" fill-opacity="1"></use></g><g><use xlink:href="#bHS8nZryc" opacity="1" fill="#6c757d" fill-opacity="0.5"></use></g></g></g></svg>